<svg width="340" height="354" viewBox="0 0 340 354" fill="none" xmlns="http://www.w3.org/2000/svg">
<path d="M0 216.8C0 191.284 22.094 170.6 49.35 170.6C53.9588 170.596 58.5481 171.198 63 172.39V261.21C58.5483 262.403 53.9588 263.005 49.35 263C22.094 263 0 242.316 0 216.8ZM16.8 121.25C16.8 106.754 27.143 95 39.9 95C52.657 95 63 106.754 63 121.25C63 135.746 52.658 147.5 39.9 147.5C27.142 147.5 16.8 135.748 16.8 121.25Z" fill="#73213D"/>
<path d="M196 263V0.047C196.691 0.0156667 197.387 0 198.087 0C223.087 0 243.422 19.686 243.987 44.185H244V44.827C244 44.962 244 45.1 244 45.236C244 45.372 244 45.478 244 45.598V263H196Z" fill="#73213D"/>
<path d="M105.012 218.75H105V86.047C105.691 86.0157 106.387 86 107.087 86C132.087 86 152.422 105.715 152.987 130.251H153V130.894C153 131.03 153 131.167 153 131.303C153 131.439 153 131.545 153 131.665V216.642V262.953C152.307 262.984 151.611 262.999 150.913 262.999C125.913 263 105.581 243.284 105.012 218.75Z" fill="#73213D"/>
<path d="M286.012 218.75H286V86.047C286.691 86.0157 287.387 86 288.087 86C313.087 86 333.422 105.715 333.987 130.251H334V130.894C334 131.03 334 131.167 334 131.303C334 131.439 334 131.545 334 131.665V216.642V262.953C333.307 262.984 332.611 262.999 331.913 262.999C306.913 263 286.581 243.284 286.012 218.75Z" fill="#73213D"/>
<path d="M23.7533 333.943H9.55211L5.8568 342H0.464218L16.8783 306.744L32.7123 342H27.2337L23.7533 333.943ZM21.7123 329.238L16.7923 317.959L11.6361 329.238H21.7123ZM38.8001 342L45.7825 306.336L57.1692 332.117L68.9641 306.336L75.2376 342H70.1028L66.9016 321.977L57.0833 343.525L47.5442 321.955L43.9778 342H38.8001ZM104.851 333.943H90.6496L86.9543 342H81.5617L97.9758 306.744L113.81 342H108.331L104.851 333.943ZM102.81 329.238L97.8898 317.959L92.7336 329.238H102.81ZM121.058 342V306.572L145.249 331.881V308.828H150.255V344.02L126.064 318.775V342H121.058ZM161.306 342V308.828H168.267C171.604 308.828 174.239 309.158 176.173 309.816C178.25 310.461 180.133 311.557 181.823 313.104C185.246 316.226 186.958 320.329 186.958 325.414C186.958 330.513 185.175 334.638 181.608 337.789C179.818 339.365 177.942 340.46 175.98 341.076C174.146 341.692 171.547 342 168.181 342H161.306ZM166.312 337.295H168.567C170.816 337.295 172.685 337.059 174.175 336.586C175.664 336.085 177.011 335.29 178.214 334.201C180.677 331.952 181.909 329.023 181.909 325.414C181.909 321.776 180.692 318.826 178.257 316.562C176.065 314.543 172.836 313.533 168.567 313.533H166.312V337.295ZM214.208 333.943H200.007L196.311 342H190.919L207.333 306.744L223.167 342H217.688L214.208 333.943ZM212.167 329.238L207.247 317.959L202.091 329.238H212.167ZM252.079 321.805H266.387V308.828H271.393V342H266.387V326.51H252.079V342H247.073V308.828H252.079V321.805ZM301.178 313.77L297.118 316.176C296.359 314.858 295.635 313.999 294.948 313.598C294.232 313.139 293.308 312.91 292.177 312.91C290.787 312.91 289.634 313.304 288.718 314.092C287.801 314.865 287.343 315.839 287.343 317.014C287.343 318.632 288.546 319.936 290.952 320.924L294.26 322.277C296.953 323.366 298.923 324.698 300.169 326.273C301.415 327.835 302.038 329.754 302.038 332.031C302.038 335.082 301.021 337.603 298.987 339.594C296.939 341.599 294.397 342.602 291.36 342.602C288.481 342.602 286.104 341.749 284.227 340.045C282.38 338.34 281.227 335.941 280.768 332.848L285.839 331.73C286.068 333.678 286.469 335.025 287.042 335.77C288.073 337.202 289.577 337.918 291.553 337.918C293.115 337.918 294.411 337.395 295.442 336.35C296.473 335.304 296.989 333.979 296.989 332.375C296.989 331.73 296.896 331.143 296.71 330.613C296.538 330.069 296.259 329.575 295.872 329.131C295.499 328.673 295.012 328.25 294.411 327.863C293.809 327.462 293.093 327.083 292.262 326.725L289.061 325.393C284.521 323.473 282.251 320.666 282.251 316.971C282.251 314.479 283.203 312.395 285.108 310.719C287.013 309.029 289.384 308.184 292.219 308.184C296.044 308.184 299.03 310.046 301.178 313.77ZM316.161 308.828V328.809C316.161 331.659 316.626 333.743 317.557 335.061C318.947 336.965 320.902 337.918 323.422 337.918C325.958 337.918 327.92 336.965 329.309 335.061C330.24 333.786 330.706 331.702 330.706 328.809V308.828H335.712V330.184C335.712 333.678 334.623 336.557 332.446 338.82C329.997 341.341 326.989 342.602 323.422 342.602C319.856 342.602 316.855 341.341 314.421 338.82C312.243 336.557 311.155 333.678 311.155 330.184V308.828H316.161Z" fill="#73213D"/>
</svg>
